<?xml version="1.0" encoding="utf-8"?>
<!-- Generator: Adobe Illustrator 26.0.3, SVG Export Plug-In . SVG Version: 6.00 Build 0)  -->
<svg version="1.1" id="Camada_1" xmlns="http://www.w3.org/2000/svg" xmlns:xlink="http://www.w3.org/1999/xlink" x="0px" y="0px"
	 viewBox="0 0 50 50" style="enable-background:new 0 0 50 50;" xml:space="preserve">
<style type="text/css">
	.st0{fill:#FF9F32;}
</style>
<g>
	<path class="st0" d="M40,17.5H10c-1.4,0-2.5-1.1-2.5-2.5v0c0-1.4,1.1-2.5,2.5-2.5h30c1.4,0,2.5,1.1,2.5,2.5v0
		C42.5,16.4,41.4,17.5,40,17.5z"/>
	<path class="st0" d="M40,27.5H10c-1.4,0-2.5-1.1-2.5-2.5v0c0-1.4,1.1-2.5,2.5-2.5h30c1.4,0,2.5,1.1,2.5,2.5v0
		C42.5,26.4,41.4,27.5,40,27.5z"/>
	<path class="st0" d="M40,37.5H10c-1.4,0-2.5-1.1-2.5-2.5v0c0-1.4,1.1-2.5,2.5-2.5h30c1.4,0,2.5,1.1,2.5,2.5v0
		C42.5,36.4,41.4,37.5,40,37.5z"/>
</g>
</svg>
