<svg id="Camada_1" data-name="Camada 1" xmlns="http://www.w3.org/2000/svg" viewBox="0 0 34.91 35"><defs><style>.cls-1,.cls-2{fill:#179d48;}.cls-2{fill-rule:evenodd;}</style></defs><path class="cls-1" d="M0,35l2.51-9.36a17.31,17.31,0,1,1,6.9,6.84Zm9.88-6,.59.35a14,14,0,1,0-4.81-4.76l.36.59-1.4,5.23Z"/><path class="cls-2" d="M24.06,19.69a2.94,2.94,0,0,0-2.48-.56c-.64.27-1,1.27-1.47,1.79a.62.62,0,0,1-.8.17,11.2,11.2,0,0,1-5.59-4.79.68.68,0,0,1,.09-.94,3.77,3.77,0,0,0,1-1.65,3.6,3.6,0,0,0-.45-2,4.7,4.7,0,0,0-1.44-2.18,2,2,0,0,0-2.15.32,4.34,4.34,0,0,0-1.51,3.45,4.54,4.54,0,0,0,.14,1.1,8.67,8.67,0,0,0,1.05,2.42,19.9,19.9,0,0,0,1.09,1.67A17,17,0,0,0,16.31,23a14.74,14.74,0,0,0,3,1.42,6.61,6.61,0,0,0,3.45.54,4.18,4.18,0,0,0,3.13-2.33A2,2,0,0,0,26,21.39C25.83,20.57,24.72,20.09,24.06,19.69Z"/></svg>