<svg id="Camada_1" data-name="Camada 1" xmlns="http://www.w3.org/2000/svg" viewBox="0 0 57.16 45"><defs><style>.cls-1{fill:#ff9f32;}</style></defs><path class="cls-1" d="M0,10.78A15.53,15.53,0,0,1,.85,8.44,6.24,6.24,0,0,1,6.63,5.11h8.62a13.25,13.25,0,0,1,.62-2.2A4.91,4.91,0,0,1,20.62,0c5.31,0,10.61,0,15.91,0a4.93,4.93,0,0,1,5,3.84c.1.39.12.8.19,1.25h.62c2.74,0,5.47,0,8.21,0a6.43,6.43,0,0,1,6.38,5,7.66,7.66,0,0,1,.17,1.72c0,8.83,0,17.67,0,26.51A6.6,6.6,0,0,1,50.51,45c-1.95,0-3.9,0-5.86,0H6.82A6.49,6.49,0,0,1,.87,41.74,13.49,13.49,0,0,1,0,39.36ZM28.58,42.12H50.22A5.78,5.78,0,0,0,51.66,42a3.68,3.68,0,0,0,2.66-3.9q0-13.1,0-26.17a4.91,4.91,0,0,0-.15-1.27A3.47,3.47,0,0,0,50.6,8H40.45A1.48,1.48,0,0,1,38.84,6.4c0-.5,0-1,0-1.5a2,2,0,0,0-2.06-2.05c-5.45,0-10.9,0-16.35,0h-.11A2,2,0,0,0,18.4,4.68a14,14,0,0,0,0,1.45c0,1.32-.54,1.86-1.85,1.86C13.2,8,9.89,8,6.58,8a3.5,3.5,0,0,0-3.69,3.67q0,13.4,0,26.79a4,4,0,0,0,.36,1.66,3.53,3.53,0,0,0,3.51,2Z"/><path class="cls-1" d="M28.61,11.69A13.37,13.37,0,1,1,15.2,25,13.41,13.41,0,0,1,28.61,11.69ZM39,25.14A10.42,10.42,0,1,0,28.6,35.54,10.39,10.39,0,0,0,39,25.14Z"/><path class="cls-1" d="M47.91,16.94a2.65,2.65,0,1,1,2.65-2.66A2.64,2.64,0,0,1,47.91,16.94Z"/></svg>