<?xml version="1.0" encoding="utf-8"?>
<!-- Generator: Adobe Illustrator 26.0.3, SVG Export Plug-In . SVG Version: 6.00 Build 0)  -->
<svg version="1.1" id="Camada_1" xmlns="http://www.w3.org/2000/svg" xmlns:xlink="http://www.w3.org/1999/xlink" x="0px" y="0px"
	 viewBox="0 0 66.4 66.4" style="enable-background:new 0 0 66.4 66.4;" xml:space="preserve">
<style type="text/css">
	.st0{fill:#FF9F32;}
	.st1{enable-background:new    ;}
	.st2{fill:#FFFFFF;}
</style>
<g>
	<g id="Camada_1_00000066491422069045791120000008171780552878090117_">
		<circle class="st0" cx="33.2" cy="33.2" r="33.2"/>
		
			<image style="overflow:visible;opacity:0.15;enable-background:new    ;" width="45" height="68" xlink:href="2E81DC90.png"  transform="matrix(1 0 0 1 13.61 3.39)">
		</image>
		<g class="st1">
			<path class="st2" d="M32.5,51.3c-2.2,0-4.2-0.4-6-1.1c-1.8-0.7-3.2-2-4.2-3.6c-1-1.7-1.6-3.9-1.6-6.6V26c0-2.8,0.5-5,1.6-6.6
				c1-1.7,2.4-2.9,4.2-3.6c1.8-0.7,3.7-1.1,5.8-1.1c2.3,0,4.4,0.4,6.2,1.1c1.8,0.8,3.2,1.9,4.2,3.3c1,1.4,1.6,3.1,1.6,5.1
				c0,1.2-0.3,2.1-0.8,2.5c-0.5,0.4-1.4,0.6-2.5,0.6c-0.9,0-1.6-0.1-2.3-0.4s-1-0.8-1-1.6c0-0.8-0.2-1.6-0.5-2.3
				c-0.3-0.7-0.8-1.4-1.5-1.9c-0.7-0.5-1.8-0.7-3.3-0.7c-1.6,0-2.9,0.5-3.9,1.4c-0.9,0.9-1.4,2.4-1.4,4.3v13.9
				c0,1.9,0.5,3.4,1.4,4.3c0.9,0.9,2.2,1.4,3.9,1.4c1.6,0,2.9-0.5,3.9-1.4c0.9-0.9,1.4-2.4,1.4-4.3V37h-4.1c-0.6,0-1.1-0.3-1.5-0.8
				c-0.4-0.5-0.5-1.1-0.5-1.7c0-0.6,0.2-1.2,0.5-1.7c0.4-0.5,0.8-0.8,1.5-0.8h8.6c0.7,0,1.2,0.2,1.5,0.6c0.4,0.4,0.5,0.9,0.5,1.5
				v5.9c0,2.8-0.5,5-1.6,6.6c-1,1.7-2.5,2.9-4.2,3.6S34.7,51.3,32.5,51.3z"/>
		</g>
	</g>
</g>
</svg>
