<?xml version="1.0" encoding="utf-8"?>
<!-- Generator: Adobe Illustrator 26.0.3, SVG Export Plug-In . SVG Version: 6.00 Build 0)  -->
<svg version="1.1" id="Camada_1" xmlns="http://www.w3.org/2000/svg" xmlns:xlink="http://www.w3.org/1999/xlink" x="0px" y="0px"
	 viewBox="0 0 66.4 66.4" style="enable-background:new 0 0 66.4 66.4;" xml:space="preserve">
<style type="text/css">
	.st0{fill:#FF9F32;}
	.st1{enable-background:new    ;}
	.st2{fill:#FFFFFF;}
</style>
<g>
	<g id="Camada_1_00000084511805589226739300000012545175597825928841_">
		<circle class="st0" cx="33.2" cy="33.2" r="33.2"/>
		
			<image style="overflow:visible;opacity:0.15;enable-background:new    ;" width="45" height="68" xlink:href="B902D323.png"  transform="matrix(1 0 0 1 14.43 3.39)">
		</image>
		<g class="st1">
			<path class="st2" d="M25.6,51c-0.8,0-1.6-0.2-2.2-0.5c-0.7-0.3-1-0.9-1-1.5V16.6c0-0.5,0.2-1,0.7-1.4c0.5-0.4,1.1-0.6,1.8-0.6
				h10.1c2.1,0,4.1,0.4,5.8,1.1c1.7,0.7,3.1,1.9,4.1,3.6s1.5,3.8,1.5,6.5v0.3c0,2.7-0.5,4.9-1.6,6.6c-1,1.7-2.5,2.9-4.2,3.6
				c-1.8,0.7-3.8,1.1-6,1.1h-5.6V49c0,0.7-0.3,1.2-1,1.5C27.1,50.8,26.4,51,25.6,51z M28.8,32.3h5.6c1.7,0,3-0.5,3.9-1.4
				s1.4-2.4,1.4-4.3V26c0-1.9-0.5-3.4-1.4-4.3c-0.9-0.9-2.2-1.4-3.9-1.4h-5.6V32.3z"/>
		</g>
	</g>
</g>
</svg>
