<svg id="Camada_1" data-name="Camada 1" xmlns="http://www.w3.org/2000/svg" viewBox="0 0 39.89 39.89"><defs><style>.cls-1{fill:red;}</style></defs><path class="cls-1" d="M19.65,0h.63a3.23,3.23,0,0,0,.53.08A18.21,18.21,0,0,1,25.93,1a19.93,19.93,0,0,1,14,19A19.15,19.15,0,0,1,39,26,19.92,19.92,0,0,1,16,39.49,19.45,19.45,0,0,1,4.45,32.44,19.41,19.41,0,0,1,.17,22.09c-.06-.6-.11-1.21-.17-1.81v-.63c0-.19.06-.38.08-.57C.2,18.05.23,17,.45,16A19.7,19.7,0,0,1,10.17,2.63,18.91,18.91,0,0,1,19,.08,4.07,4.07,0,0,0,19.65,0ZM20,36.22A16.26,16.26,0,1,0,3.7,19.93,16.3,16.3,0,0,0,20,36.22Z"/><path class="cls-1" d="M22.43,16.26v5.19a1.94,1.94,0,0,1-1.69,2.12,3.17,3.17,0,0,1-2.3-.28,1.68,1.68,0,0,1-.94-1.55q0-5.5,0-11a1.93,1.93,0,0,1,1.87-1.85,3.15,3.15,0,0,1,2.14.34,1.77,1.77,0,0,1,.92,1.61Z"/><path class="cls-1" d="M20,31.12a2.43,2.43,0,1,1,0-4.86,2.43,2.43,0,1,1,0,4.86Z"/></svg>