<svg id="Camada_1" data-name="Camada 1" xmlns="http://www.w3.org/2000/svg" viewBox="0 0 46.91 47"><defs><style>.cls-1{fill:#ff9f32;}</style></defs><path class="cls-1" d="M18.25,46.5l-.21,0a32.53,32.53,0,0,1-7.51-1.27,1,1,0,0,0-.25,0,.86.86,0,0,0-.61.23A4.24,4.24,0,0,1,7.55,46.5H1.13a1.31,1.31,0,0,1-.63-.69V28.92a1.09,1.09,0,0,1,1.2-.71l2.54,0,2.41,0h.12A3.79,3.79,0,0,1,10,29.73l.28.36.39-.24.62-.4a9.37,9.37,0,0,1,1.26-.76,9.9,9.9,0,0,1,4.25-1,9.07,9.07,0,0,1,5.55,2A5.67,5.67,0,0,0,25.93,31h.18c.71,0,1.42,0,2.14,0l3.25,0a3.63,3.63,0,0,1,3.69,2.4.62.62,0,0,0,.13.21l.5.69.4-.59.11-.17c.05-.07.09-.14.14-.2l.55-.59q1.48-1.6,3-3.2a3.59,3.59,0,0,1,4.59-.8A3.55,3.55,0,0,1,46.3,31a3.42,3.42,0,0,1-.43,2.68c-.74,1.11-1.57,2.2-2.37,3.26L42.68,38l-1,1.31c-1,1.31-2,2.65-3,3.93a8.81,8.81,0,0,1-5.76,3.15,1.83,1.83,0,0,0-.32.07H18.25Zm13.23-1.75a7.58,7.58,0,0,0,6.38-3.18l6.23-8.34a3.66,3.66,0,0,0,.37-.58,1.83,1.83,0,0,0-1.12-2.57,1.73,1.73,0,0,0-.58-.1,2.07,2.07,0,0,0-1.52.78L39,33.12l-3.48,3.75a4,4,0,0,1-3.14,1.37H22a.87.87,0,0,1-.83-.87.88.88,0,0,1,.81-.88h4.74c1.62,0,3.25,0,4.88,0A2.67,2.67,0,0,0,33,36a1.7,1.7,0,0,0,.49-2.07,1.89,1.89,0,0,0-1.8-1.17H28.38c-.72,0-1.45,0-2.17,0h-.3A7.12,7.12,0,0,1,21.2,31a6.74,6.74,0,0,0-4.4-1.59,9.05,9.05,0,0,0-1.61.16,8.11,8.11,0,0,0-3.86,2.08,1.78,1.78,0,0,0-.66,1.5c0,2.34,0,4.67,0,7v3.21l.36.11a30.61,30.61,0,0,0,8.67,1.26H31.48ZM3.16,30l-.31,0-.59,0V44.75H6.87a1.89,1.89,0,0,0,2.06-2.05V32A1.89,1.89,0,0,0,6.87,30H3.16Z"/><path class="cls-1" d="M24.07,25.94a1,1,0,0,1-.63-.28L21.31,23.8c-2.33-2-4.73-4.1-7.06-6.2a15.91,15.91,0,0,1-3.88-5.14A8.77,8.77,0,0,1,12.71,2.05,7,7,0,0,1,16.13.59l.31-.08H18a1,1,0,0,0,.27.07,6.35,6.35,0,0,1,3.51,1.58c.48.44.92.92,1.38,1.43l.65.7.41.44.58-.79a7.74,7.74,0,0,1,3.41-2.87,9.9,9.9,0,0,1,1.4-.4L30.21.5h1.53L32,.56l.67.16a7.93,7.93,0,0,1,5.78,6.49,9.53,9.53,0,0,1-1.69,7.08,21.34,21.34,0,0,1-3.59,4c-2.32,2.05-4.66,4.07-7,6.09l-1.43,1.23A1,1,0,0,1,24.07,25.94ZM17.18,2.24a5.45,5.45,0,0,0-3.29,1.12,6.53,6.53,0,0,0-2.51,6.21,8.45,8.45,0,0,0,2.2,4.74A28.08,28.08,0,0,0,16.19,17c1.76,1.59,3.56,3.15,5.38,4.73L24.08,24l2.62-2.28c1.85-1.61,3.67-3.2,5.47-4.81a18.44,18.44,0,0,0,3.41-4,7.32,7.32,0,0,0,.61-7.16A5.79,5.79,0,0,0,31,2.25a5.5,5.5,0,0,0-4.46,2.32,11.47,11.47,0,0,0-1,1.72c-.12.23-.23.46-.36.69a2.38,2.38,0,0,0-.16.4l-.06.16a.82.82,0,0,1-.82.61c-.29,0-.59-.07-.85-.62L23,7a16.68,16.68,0,0,0-1.08-2.1A5.68,5.68,0,0,0,17.18,2.24Z"/></svg>