<svg id="Camada_1" data-name="Camada 1" xmlns="http://www.w3.org/2000/svg" viewBox="0 0 28.23 34.76"><defs><style>.cls-1{fill:#ff9f32;}</style></defs><path class="cls-1" d="M5.91,34.76l-.68-.18a4.26,4.26,0,0,1-2.91-3.91c0-.19,0-.38,0-.57q0-9.68,0-19.34a.49.49,0,0,0-.38-.55A3.1,3.1,0,0,1,0,7,3.06,3.06,0,0,1,2.78,4.29c1.39-.07,2.78,0,4.17,0h.3c0-.45,0-.89.06-1.32A3.16,3.16,0,0,1,10.47,0c2.43,0,4.87,0,7.3,0A3.19,3.19,0,0,1,21,3.36v.86l.37,0H25a3.1,3.1,0,0,1,1.35,6,.52.52,0,0,0-.39.58c0,6.46,0,12.93,0,19.4a4.56,4.56,0,0,1-1.38,3.49,4,4,0,0,1-2,1l-.18.06Zm-2-24.31V30.21A4.74,4.74,0,0,0,4,31a2.48,2.48,0,0,0,2.44,2.17H21.78a2.33,2.33,0,0,0,2-1.05,3.1,3.1,0,0,0,.52-1.89q0-9.69,0-19.37c0-.12,0-.24,0-.37ZM14.12,8.8H24.78a4.35,4.35,0,0,0,.51,0,1.44,1.44,0,0,0,1.28-1.55c-.07-.86-.7-1.36-1.71-1.36H3.39a4.36,4.36,0,0,0-.51,0,1.45,1.45,0,0,0-.15,2.84,2.8,2.8,0,0,0,.71.06ZM19.3,4.22a9.86,9.86,0,0,0,0-1.22,1.43,1.43,0,0,0-1.12-1.29,1.73,1.73,0,0,0-.5-.07h-7.1A1.51,1.51,0,0,0,9,2.9,8.28,8.28,0,0,0,9,4.22Z"/><path class="cls-1" d="M10.12,21.08c0,2.5,0,5,0,7.5a1.57,1.57,0,0,1-.16.67.69.69,0,0,1-.76.34A.76.76,0,0,1,8.55,29a1.83,1.83,0,0,1-.05-.4v-15a1.29,1.29,0,0,1,.11-.55.79.79,0,0,1,1.46.14,1.67,1.67,0,0,1,0,.5C10.13,16.15,10.12,18.62,10.12,21.08Z"/><path class="cls-1" d="M13.31,21.1c0-2.5,0-5,0-7.5,0-.59.25-.93.72-1a.75.75,0,0,1,.86.62,1.84,1.84,0,0,1,0,.41V28.54a2.12,2.12,0,0,1,0,.44.79.79,0,0,1-1.55,0,2.12,2.12,0,0,1,0-.44C13.3,26.05,13.31,23.57,13.31,21.1Z"/><path class="cls-1" d="M18.11,21.12V13.7c0-.71.27-1.08.79-1.08s.84.37.84,1.08V28.52c0,.7-.31,1.1-.84,1.08s-.79-.38-.79-1.08Z"/></svg>