<?xml version="1.0" encoding="utf-8"?>
<!-- Generator: Adobe Illustrator 26.0.3, SVG Export Plug-In . SVG Version: 6.00 Build 0)  -->
<svg version="1.1" id="Camada_1" xmlns="http://www.w3.org/2000/svg" xmlns:xlink="http://www.w3.org/1999/xlink" x="0px" y="0px"
	 viewBox="0 0 40 40" style="enable-background:new 0 0 40 40;" xml:space="preserve">
<style type="text/css">
	.st0{fill:#FF9F32;}
	.st1{enable-background:new    ;}
	.st2{fill:#FFFFFF;}
</style>
<circle class="st0" cx="20" cy="20" r="20"/>
<g class="st1">
	<path class="st2" d="M6.7,29.1c-0.4,0-0.8-0.1-1.1-0.3c-0.3-0.2-0.5-0.4-0.5-0.7V13c0-0.6,0.2-1,0.5-1.2c0.3-0.2,0.7-0.4,1.1-0.4
		c0.4,0,0.7,0,1,0.1c0.3,0.1,0.5,0.2,0.8,0.5c0.2,0.2,0.5,0.6,0.7,1.1l3,5.4l3-5.4c0.3-0.5,0.5-0.8,0.8-1.1c0.2-0.2,0.5-0.4,0.7-0.5
		c0.3-0.1,0.6-0.1,1-0.1c0.4,0,0.8,0.1,1.1,0.4c0.3,0.2,0.5,0.6,0.5,1.2v15.1c0,0.3-0.2,0.6-0.5,0.7c-0.3,0.2-0.7,0.3-1.1,0.3
		s-0.8-0.1-1.1-0.3S16,28.4,16,28.1V17.7l-2.8,5c-0.1,0.2-0.3,0.4-0.5,0.5c-0.2,0.1-0.4,0.1-0.6,0.1c-0.2,0-0.4,0-0.5-0.1
		c-0.2-0.1-0.4-0.3-0.5-0.5l-2.8-5.2v10.6c0,0.3-0.2,0.6-0.5,0.7S7.1,29.1,6.7,29.1z"/>
	<path class="st2" d="M27.7,29.2c-1.1,0-2-0.2-2.9-0.5c-0.9-0.4-1.5-1-2.1-1.8C22.2,26.1,22,25,22,23.7V17c0-1.3,0.3-2.4,0.8-3.2
		c0.5-0.8,1.2-1.4,2-1.8c0.9-0.4,1.8-0.5,2.8-0.5c1.1,0,2.1,0.2,3,0.6c0.9,0.4,1.6,0.9,2.1,1.6s0.8,1.5,0.8,2.5c0,0.6-0.1,1-0.4,1.2
		s-0.7,0.3-1.2,0.3c-0.4,0-0.8-0.1-1.1-0.2c-0.3-0.1-0.5-0.4-0.5-0.8c0-0.4-0.1-0.8-0.2-1.1c-0.1-0.4-0.4-0.7-0.7-0.9
		c-0.4-0.2-0.9-0.4-1.6-0.4c-0.8,0-1.4,0.2-1.9,0.7c-0.5,0.5-0.7,1.2-0.7,2.1v6.7c0,0.9,0.2,1.6,0.7,2.1c0.5,0.5,1.1,0.7,1.9,0.7
		s1.4-0.2,1.9-0.7c0.5-0.5,0.7-1.2,0.7-2.1v-1.4h-2c-0.3,0-0.5-0.1-0.7-0.4c-0.2-0.3-0.3-0.5-0.3-0.8c0-0.3,0.1-0.6,0.3-0.8
		c0.2-0.3,0.4-0.4,0.7-0.4h4.2c0.3,0,0.6,0.1,0.7,0.3c0.2,0.2,0.3,0.4,0.3,0.7v2.9c0,1.3-0.3,2.4-0.8,3.2c-0.5,0.8-1.2,1.4-2.1,1.8
		C29.7,29.1,28.8,29.2,27.7,29.2z"/>
</g>
</svg>
