<svg id="Camada_1" data-name="Camada 1" xmlns="http://www.w3.org/2000/svg" viewBox="0 0 32.6 35"><defs><style>.cls-1{fill:#ff9f32;}</style></defs><path class="cls-1" d="M0,10.3A10.71,10.71,0,0,1,4.18,1.86c.45-.35.87-.76,1.31-1.13a2.24,2.24,0,0,1,3.33,0,15.42,15.42,0,0,1,4,6.53,3.09,3.09,0,0,1-.94,3.27,17.8,17.8,0,0,1-2,1.67,2.81,2.81,0,0,0-1.24,3.55,11.29,11.29,0,0,0,1.85,3.43,27.34,27.34,0,0,0,5.14,5.44,7.12,7.12,0,0,0,2,1.12A2.68,2.68,0,0,0,20.7,25a23.57,23.57,0,0,1,1.79-1.67,3.41,3.41,0,0,1,4.16-.57,16.82,16.82,0,0,1,3.54,2.64A9.7,9.7,0,0,1,32,27.29a2.4,2.4,0,0,1-.45,3.64,29.57,29.57,0,0,1-2.32,2,11.08,11.08,0,0,1-9.72,1.59A19.3,19.3,0,0,1,12,30.42,40.76,40.76,0,0,1,2.16,18.48,17.14,17.14,0,0,1,0,10.3Z"/></svg>