<svg id="Camada_1" data-name="Camada 1" xmlns="http://www.w3.org/2000/svg" viewBox="0 0 56.89 54.44"><defs><style>.cls-1{fill:#ff9f32;}</style></defs><path class="cls-1" d="M51.77,29.16c-.11.36-.2.72-.33,1.06A4.63,4.63,0,0,1,49,32.81c-2.65,1.27-5.29,2.56-7.94,3.84L14.54,49.48a4.61,4.61,0,0,1-5.73-1A4.52,4.52,0,0,1,8,43.6c1-2.58,2.07-5.16,3.1-7.75.92-2.3,1.84-4.61,2.77-6.91a.94.94,0,0,0,0-.77c-1.94-4.82-3.85-9.64-5.8-14.45A4.65,4.65,0,0,1,8.63,8.8a4.6,4.6,0,0,1,5.75-1.23l7.91,3.82q13.23,6.41,26.46,12.8a4.88,4.88,0,0,1,3,3.65.67.67,0,0,0,.06.12ZM47.27,27l0-.08-.37-.19-18.6-9q-7.57-3.67-15.15-7.32A2.23,2.23,0,0,0,12,10.19c-1.06.17-1.48,1.19-1,2.32q2.8,7,5.6,14a.63.63,0,0,0,.71.48h30Zm0,3.19v-.08H17.08c-.31,0-.41.13-.51.38q-2,5.06-4,10.11c-.56,1.4-1.13,2.79-1.68,4.2A1.51,1.51,0,0,0,12.13,47a2.26,2.26,0,0,0,1.06-.27L40.27,33.6Z"/></svg>