<?xml version="1.0" encoding="utf-8"?>
<!-- Generator: Adobe Illustrator 26.0.3, SVG Export Plug-In . SVG Version: 6.00 Build 0)  -->
<svg version="1.1" id="Camada_1" xmlns="http://www.w3.org/2000/svg" xmlns:xlink="http://www.w3.org/1999/xlink" x="0px" y="0px"
	 viewBox="0 0 45.6 40" style="enable-background:new 0 0 45.6 40;" xml:space="preserve">
<style type="text/css">
	.st0{fill:#FF9F32;}
</style>
<g>
	<path class="st0" d="M44.1,39.5c-0.2,0-0.4-0.1-0.6-0.2c-2.2-1.1-4.5-2.2-7.3-3.7c-0.2-0.1-0.4-0.2-0.7-0.2s-0.5,0.1-0.7,0.2
		c-2.3,0.8-4.6,1.3-6.9,1.3c-3.9,0-7.5-1.3-11-3.9c-0.4-0.2-0.7-0.5-0.9-0.8c-0.5-0.5-1.1-0.8-1.7-0.9c-1.2-0.3-2.5-0.7-3.8-1.1
		c-0.1-0.1-0.3-0.1-0.5-0.1c-0.2,0-0.4,0-0.6,0.1C6.8,31.7,4.1,33,2.1,34c-0.2,0.1-0.4,0.2-0.6,0.2c0,0-0.1,0-0.1,0
		c-0.2,0-0.4-0.1-0.5-0.3c-0.1-0.2-0.2-0.4-0.1-0.6c0-0.1,0-0.1,0.1-0.2c0.8-2.6,1.6-5.1,2.4-7.7C3.4,25,3.3,24.5,3,24.2
		c-1.3-2-2.2-4.3-2.4-6.7c0-0.1,0-0.3-0.1-0.4V15c0-0.2,0.1-0.5,0.1-0.8C0.7,13.6,0.8,13,1,12.4C2,8.5,4.6,5.1,8,3.1
		c2.8-1.7,6-2.6,9.3-2.6c4,0,8,1.4,11.2,3.9c0.2,0.2,0.4,0.4,0.6,0.5c0.2,0.2,0.4,0.4,0.7,0.6c0.3,0.2,0.6,0.4,0.9,0.4
		c6.2,1,10.4,4,12.9,9.1c2.3,4.8,2,9.7-1,14.4c-0.3,0.3-0.4,0.9-0.2,1.3c0.8,2.5,1.6,5,2.4,7.5c0.1,0.3,0.1,0.5,0.1,0.7
		c-0.1,0.2-0.2,0.4-0.4,0.5c-0.1,0-0.1,0.1-0.2,0.1C44.2,39.5,44.2,39.5,44.1,39.5z M35.6,33.6c0.2,0,0.5,0.1,0.7,0.2
		c0.9,0.5,1.7,0.9,2.6,1.3l1,0.5l2.4,1.3v-0.8c0-0.2-0.1-0.4-0.1-0.5L41.7,34c-0.4-1.1-0.7-2.3-1.1-3.5c-0.2-0.5-0.1-1.1,0.2-1.5
		c3.5-4.6,3.5-11-0.1-15.6C38,10,33.9,7.8,29.5,7.6c-0.5-0.1-1.1-0.1-1.6-0.1c-4.1,0-8,1.6-10.9,4.5c-3.2,2.9-4.6,7.2-3.8,11.4
		c0.6,4,3.2,7.6,6.8,9.5c2.5,1.5,5.3,2.3,8.2,2.3c2.3,0,4.6-0.5,6.7-1.5C35.1,33.6,35.3,33.6,35.6,33.6z M17.2,2.2
		c-3.6,0-7.2,1.3-10,3.6c-3.3,2.5-5.1,6.5-5,10.6c0.1,2.7,1,5.3,2.6,7.4c0.3,0.4,0.4,0.8,0.2,1.3c-0.2,0.7-0.5,1.4-0.7,2.1
		C4.1,28.1,3.8,29,3.5,30c0,0.1-0.1,0.3-0.1,0.4L3,31.6l1.6-0.8c1.6-0.8,3.2-1.6,4.8-2.4c0.2-0.1,0.4-0.1,0.5-0.1
		c0.2,0,0.4,0,0.5,0.1c0.7,0.2,1.3,0.5,2,0.7l0.4,0.2l0.5-0.7L13,28c-2.2-4.2-2.2-9.1,0.1-13.3c2.3-4.5,6.3-7.3,11.7-8.5
		c0.3-0.1,0.6-0.1,1-0.2c0.2,0,0.4-0.1,0.7-0.1l1.2-0.2l-1.2-0.8c-0.2-0.1-0.3-0.2-0.5-0.3c-2.1-1.3-4.6-2.1-7.1-2.3
		C18.3,2.2,17.7,2.2,17.2,2.2z"/>
</g>
<g>
	<path class="st0" d="M22.8,22.2c-0.5,0-0.8-0.4-0.8-0.8c0-0.2,0.1-0.4,0.2-0.6c0.2-0.2,0.4-0.2,0.6-0.3c0.5,0,0.8,0.4,0.8,0.8
		C23.6,21.8,23.2,22.2,22.8,22.2L22.8,22.2z"/>
</g>
<g>
	<path class="st0" d="M33.4,22.2c-0.2,0-0.4-0.1-0.6-0.3s-0.2-0.4-0.2-0.6c0-0.5,0.4-0.8,0.8-0.8c0.5,0,0.8,0.4,0.8,0.8
		C34.3,21.8,33.9,22.2,33.4,22.2L33.4,22.2z"/>
</g>
<g>
	<path class="st0" d="M28.1,22.2c-0.2,0-0.4-0.1-0.6-0.3c-0.2-0.2-0.2-0.4-0.2-0.6c0-0.5,0.4-0.8,0.8-0.8c0.5,0,0.8,0.4,0.8,0.9
		C28.9,21.8,28.6,22.2,28.1,22.2L28.1,22.2z"/>
</g>
</svg>
