<svg id="Camada_1" data-name="Camada 1" xmlns="http://www.w3.org/2000/svg" viewBox="0 0 36.74 36.74"><defs><style>.cls-1{fill:#008f00;}.cls-2{fill:#fff;}</style></defs><circle class="cls-1" cx="18.37" cy="18.37" r="18.37"/><path class="cls-2" d="M12,26.78a7,7,0,0,1-2.74-.52A4.07,4.07,0,0,1,7.27,24.6a5.72,5.72,0,0,1-.71-3.05V15.19a5.69,5.69,0,0,1,.71-3,4.12,4.12,0,0,1,1.92-1.66A6.9,6.9,0,0,1,12,10a7,7,0,0,1,2.75.52,4.09,4.09,0,0,1,1.95,1.66,5.78,5.78,0,0,1,.71,3v6.36a5.81,5.81,0,0,1-.71,3.05,4.09,4.09,0,0,1-1.95,1.66A7.13,7.13,0,0,1,12,26.78Zm0-2.61a2.42,2.42,0,0,0,1.77-.63,2.71,2.71,0,0,0,.65-2V15.19a2.71,2.71,0,0,0-.65-2A2.43,2.43,0,0,0,12,12.56a2.45,2.45,0,0,0-1.78.64,2.71,2.71,0,0,0-.64,2v6.36a2.71,2.71,0,0,0,.64,2A2.45,2.45,0,0,0,12,24.17Z"/><path class="cls-2" d="M21.44,26.64a2.19,2.19,0,0,1-1-.24.75.75,0,0,1-.48-.7V10.87a.71.71,0,0,1,.48-.69,2.31,2.31,0,0,1,1-.22,2.36,2.36,0,0,1,1,.22.72.72,0,0,1,.46.69V17.1l5-6.7a.94.94,0,0,1,.8-.44,1.63,1.63,0,0,1,.8.23,2.22,2.22,0,0,1,.68.57,1.17,1.17,0,0,1,.28.73,1,1,0,0,1-.05.27.73.73,0,0,1-.16.3l-4.1,5.11,5,7.58a.91.91,0,0,1,.16.52,1.2,1.2,0,0,1-.26.71,2.2,2.2,0,0,1-.68.56,1.88,1.88,0,0,1-.86.21,1.24,1.24,0,0,1-.58-.13,1.42,1.42,0,0,1-.48-.44l-4.33-6.5-1.24,1.55V25.7a.76.76,0,0,1-.46.7A2.24,2.24,0,0,1,21.44,26.64Z"/></svg>