<?xml version="1.0" encoding="utf-8"?>
<!-- Generator: Adobe Illustrator 26.0.3, SVG Export Plug-In . SVG Version: 6.00 Build 0)  -->
<svg version="1.1" id="Camada_1" xmlns="http://www.w3.org/2000/svg" xmlns:xlink="http://www.w3.org/1999/xlink" x="0px" y="0px"
	 viewBox="0 0 40 40" style="enable-background:new 0 0 40 40;" xml:space="preserve">
<style type="text/css">
	.st0{fill:#FF9F32;}
	.st1{enable-background:new    ;}
	.st2{fill:#FFFFFF;}
</style>
<circle class="st0" cx="20" cy="20" r="20"/>
<g class="st1">
	<path class="st2" d="M13.6,29.3c-1.1,0-2-0.2-2.9-0.5c-0.9-0.3-1.5-0.7-2-1.1C8.2,27.2,8,26.8,8,26.3c0-0.2,0.1-0.5,0.2-0.7
		s0.3-0.5,0.5-0.7c0.2-0.2,0.4-0.3,0.7-0.3c0.3,0,0.5,0.1,0.7,0.3s0.5,0.4,0.8,0.7c0.3,0.3,0.7,0.5,1.1,0.7c0.4,0.2,0.9,0.3,1.6,0.3
		c0.5,0,0.9-0.1,1.4-0.2c0.4-0.2,0.7-0.4,1-0.7c0.3-0.3,0.4-0.7,0.4-1.2c0-0.5-0.1-1-0.4-1.3c-0.3-0.4-0.7-0.7-1.1-0.9
		c-0.5-0.3-1-0.5-1.5-0.8c-0.6-0.2-1.1-0.5-1.7-0.8s-1.1-0.6-1.5-1c-0.5-0.4-0.8-0.9-1.1-1.4c-0.3-0.6-0.4-1.3-0.4-2.1
		c0-0.9,0.2-1.7,0.5-2.3c0.4-0.6,0.8-1.1,1.4-1.5c0.6-0.4,1.2-0.7,1.9-0.8s1.4-0.3,2.1-0.3c0.4,0,0.8,0,1.3,0.1
		c0.5,0.1,1,0.2,1.5,0.3c0.5,0.1,0.9,0.3,1.3,0.6c0.3,0.3,0.5,0.6,0.5,1c0,0.2,0,0.4-0.1,0.7c-0.1,0.3-0.2,0.5-0.4,0.7
		c-0.2,0.2-0.4,0.3-0.7,0.3c-0.3,0-0.5-0.1-0.8-0.2s-0.6-0.3-1-0.5C15.6,14.1,15,14,14.3,14c-0.6,0-1.1,0.1-1.5,0.2
		c-0.4,0.2-0.7,0.4-1,0.6c-0.2,0.3-0.3,0.6-0.3,1c0,0.4,0.1,0.8,0.4,1.1c0.3,0.3,0.7,0.5,1.1,0.8c0.5,0.2,1,0.5,1.5,0.7
		c0.6,0.2,1.1,0.5,1.7,0.8c0.6,0.3,1.1,0.7,1.6,1.1c0.5,0.4,0.8,0.9,1.1,1.6c0.3,0.6,0.4,1.4,0.4,2.3c0,1.1-0.3,2.1-0.8,2.9
		c-0.5,0.8-1.2,1.4-2.1,1.8C15.7,29.1,14.7,29.3,13.6,29.3z"/>
	<path class="st2" d="M23.2,29.1c-0.4,0-0.8-0.1-1.1-0.3s-0.5-0.4-0.5-0.7V12.4c0-0.3,0.1-0.5,0.3-0.7c0.2-0.2,0.5-0.3,0.9-0.3h4.9
		c1,0,2,0.2,2.8,0.5c0.8,0.4,1.5,0.9,2,1.7c0.5,0.8,0.7,1.9,0.7,3.2V17c0,1.3-0.3,2.4-0.8,3.2C32,21,31.3,21.6,30.4,22
		c-0.9,0.4-1.8,0.5-2.9,0.5h-2.7v5.6c0,0.3-0.2,0.6-0.5,0.7S23.6,29.1,23.2,29.1z M24.8,20h2.7c0.8,0,1.4-0.2,1.9-0.7
		c0.4-0.5,0.7-1.2,0.7-2.1V17c0-0.9-0.2-1.6-0.7-2.1c-0.4-0.5-1.1-0.7-1.9-0.7h-2.7V20z"/>
</g>
</svg>
