<svg id="Camada_1" data-name="Camada 1" xmlns="http://www.w3.org/2000/svg" viewBox="0 0 50 50"><defs><style>.cls-1{fill:#ff9f32;}</style></defs><path class="cls-1" d="M50,10.55c-.08.28-.15.56-.23.83a5.54,5.54,0,0,1-1.45,2.34L14.93,47.12a2.36,2.36,0,0,1-1.32.67L1.86,50A1.47,1.47,0,0,1,0,48.14c.73-4,1.44-7.93,2.21-11.89A2.79,2.79,0,0,1,3,35Q18.49,19.45,34,4c.47-.47,1-.93,1.41-1.42A6.79,6.79,0,0,1,39.65,0h1a6.72,6.72,0,0,1,4.22,2.47C46,3.67,47.15,4.81,48.32,6a5.57,5.57,0,0,1,1.45,2.33c.09.3.15.6.23.89Zm-15.38-3L5.9,36.29l7.79,7.78L42.42,15.36Zm10,5.7c.52-.53,1.07-1.06,1.6-1.61a2.38,2.38,0,0,0,0-3.65L43.6,5.38C43,4.82,42.48,4.25,41.91,3.7a2.28,2.28,0,0,0-3-.37,26.16,26.16,0,0,0-2.17,2ZM3.28,46.72l7.29-1.35L4.63,39.43Z"/></svg>