<svg id="Camada_1" data-name="Camada 1" xmlns="http://www.w3.org/2000/svg" viewBox="0 0 42.38 27.76"><defs><style>.cls-1{fill:#ff9f32;}</style></defs><path class="cls-1" d="M21.43,27.46a22.39,22.39,0,0,1-3.89-.34A22.81,22.81,0,0,1,.5,14.53l-.2-.41V13.6A23.05,23.05,0,0,1,5,7,22.77,22.77,0,0,1,19.56.36Q20.38.3,21.21.3A22.92,22.92,0,0,1,41.85,13.16l.22.44v.53a22.84,22.84,0,0,1-9,10A22.42,22.42,0,0,1,21.43,27.46Zm-.28-25-.95.08c-.68.05-1.38.1-2.07.22A20.75,20.75,0,0,0,2.89,13.4a.89.89,0,0,0,0,1,20.92,20.92,0,0,0,18.2,10.85h0A21.29,21.29,0,0,0,24.2,25,20.56,20.56,0,0,0,39.47,14.37a1,1,0,0,0,0-1C35.5,6.51,29.35,2.84,21.19,2.44h0Z"/><path class="cls-1" d="M21.17,21.93a8.07,8.07,0,1,1,8.1-8.06,8,8,0,0,1-8.1,8.06ZM21.21,8A5.85,5.85,0,1,0,27,13.89,5.87,5.87,0,0,0,21.21,8Z"/></svg>