<svg id="Camada_1" data-name="Camada 1" xmlns="http://www.w3.org/2000/svg" viewBox="0 0 46.99 47"><defs><style>.cls-1{fill:#ff9f32;}</style></defs><path class="cls-1" d="M17.25,0c.34.09.69.16,1,.28a4.77,4.77,0,0,1,3.06,3.24.49.49,0,0,0,.57.41c.81,0,1.62,0,2.44,0s1.1.35,1.12,1.12v.83c1,0,2,0,3,0a4.91,4.91,0,0,1,4.88,5c0,1.86,0,3.73,0,5.6v.18a1,1,0,0,1-1,1,1,1,0,0,1-1-1c0-.67,0-1.35,0-2,0-1.29,0-2.57,0-3.86a2.82,2.82,0,0,0-2.63-2.89c-1-.09-2.1,0-3.23,0v.77a2.94,2.94,0,0,1-3.13,3.13H10.94A3,3,0,0,1,7.82,8.64V7.9a32.55,32.55,0,0,0-3.57,0A2.8,2.8,0,0,0,2,10.71c0,.17,0,.34,0,.5V36A3,3,0,0,0,4.1,39a4.31,4.31,0,0,0,1.13.13H18.17c.17,0,.34,0,.51,0a.93.93,0,0,1,.89.93,1,1,0,0,1-.84,1,3.38,3.38,0,0,1-.45,0c-4.38,0-8.75,0-13.13,0A5,5,0,0,1,.07,37s0-.07-.07-.11V10.1a2.5,2.5,0,0,0,.09-.25A4.77,4.77,0,0,1,1.52,7.24,4.76,4.76,0,0,1,4.87,5.88h3V5.19c0-.94.33-1.26,1.28-1.27h2.72c0-.13.08-.24.11-.36a4.88,4.88,0,0,1,3-3.24A9.59,9.59,0,0,1,16,0Zm6.24,5.93c-.06,0-.09,0-.12,0H21c-1.1,0-1.34-.22-1.44-1.31a2.93,2.93,0,0,0-5.85.28,1,1,0,0,1-1.1,1H9.8V8.46c0,1,.3,1.34,1.33,1.34h11a2.94,2.94,0,0,0,.59-.05.85.85,0,0,0,.74-.82C23.51,7.93,23.49,6.92,23.49,5.93Z"/><path class="cls-1" d="M21.55,34.24A12.72,12.72,0,1,1,34.24,47,12.71,12.71,0,0,1,21.55,34.24Zm23.49,0A10.77,10.77,0,1,0,34.27,45.05,10.8,10.8,0,0,0,45,34.26Z"/><path class="cls-1" d="M16.66,15.67H26a4.26,4.26,0,0,1,.5,0,1,1,0,0,1,.89.94,1,1,0,0,1-.81,1,2.77,2.77,0,0,1-.41,0H7.11a2,2,0,0,1-.59-.07,1,1,0,0,1-.64-1,1,1,0,0,1,.87-.86,4.18,4.18,0,0,1,.5,0Z"/><path class="cls-1" d="M13.67,23.5c-2.21,0-4.43,0-6.65,0a1.27,1.27,0,0,1-.88-.35A1.3,1.3,0,0,1,6,22.21a.78.78,0,0,1,.75-.64,4.1,4.1,0,0,1,.5,0H20.37c.73,0,1.18.4,1.17,1s-.46,1-1.17,1Z"/><path class="cls-1" d="M11.77,27.43h4.81a1,1,0,0,1,1,1,1,1,0,0,1-1.06,1H7a1,1,0,0,1-1-.62.79.79,0,0,1,.19-1A1.4,1.4,0,0,1,7,27.44C8.59,27.41,10.18,27.42,11.77,27.43Z"/><path class="cls-1" d="M32.21,36.81,37.31,31c.36-.41.71-.83,1.09-1.23a1,1,0,0,1,1.39-.14A1,1,0,0,1,39.85,31q-3.36,3.87-6.76,7.73a1,1,0,0,1-1.55,0q-1.87-1.86-3.73-3.73a1,1,0,1,1,1.37-1.39l2.69,2.69C32,36.49,32.07,36.64,32.21,36.81Z"/></svg>