<?xml version="1.0" encoding="utf-8"?>
<!-- Generator: Adobe Illustrator 26.0.3, SVG Export Plug-In . SVG Version: 6.00 Build 0)  -->
<svg version="1.1" id="Camada_1" xmlns="http://www.w3.org/2000/svg" xmlns:xlink="http://www.w3.org/1999/xlink" x="0px" y="0px"
	 viewBox="0 0 66.4 66.4" style="enable-background:new 0 0 66.4 66.4;" xml:space="preserve">
<style type="text/css">
	.st0{fill:#FF9F32;}
	.st1{enable-background:new    ;}
	.st2{fill:#FFFFFF;}
</style>
<g>
	<g id="Camada_1_00000112627481540330388980000018444234325887358627_">
		<circle class="st0" cx="33.2" cy="33.2" r="33.2"/>
		
			<image style="overflow:visible;opacity:0.15;enable-background:new    ;" width="42" height="68" xlink:href="74738849.png"  transform="matrix(1 0 0 1 14.18 3.37)">
		</image>
		<g class="st1">
			<path class="st2" d="M24.8,51c-0.8,0-1.6-0.2-2.2-0.5c-0.7-0.3-1-0.9-1-1.5V16.6c0-0.7,0.3-1.2,0.9-1.5s1.3-0.5,2-0.5h17.6
				c0.7,0,1.3,0.3,1.6,0.9c0.3,0.6,0.5,1.2,0.5,1.9c0,0.8-0.2,1.5-0.5,2c-0.4,0.6-0.9,0.8-1.5,0.8H28v10h7.7c0.7,0,1.2,0.3,1.5,0.8
				c0.4,0.5,0.5,1.1,0.5,1.8c0,0.6-0.2,1.1-0.5,1.7c-0.3,0.5-0.8,0.8-1.6,0.8H28V49c0,0.7-0.3,1.2-1,1.5C26.3,50.8,25.6,51,24.8,51z
				"/>
		</g>
	</g>
</g>
</svg>
