<svg id="Camada_1" data-name="Camada 1" xmlns="http://www.w3.org/2000/svg" viewBox="0 0 71.3 63.39"><defs><style>.cls-1{fill:#ff9f32;}</style></defs><path class="cls-1" d="M1,27.5c-.13,0-.5,0-1-.84v-.48c.07-.08.15-.16.22-.25A5.63,5.63,0,0,1,1,25.12Q16.41,13.84,31.8,2.58l2.8-2A2.12,2.12,0,0,1,35.66,0a2.12,2.12,0,0,1,1.06.53L70.53,25.28a1.63,1.63,0,0,1,.77,1.28,1,1,0,0,1-.53.77,1.06,1.06,0,0,1-.54.17,1.65,1.65,0,0,1-.94-.41l-7.88-5.77-6.52-4.77Q45.79,9.88,36.7,3.2a1.77,1.77,0,0,0-1-.39,1.82,1.82,0,0,0-1.07.41L5.86,24.27,2.17,27A2.22,2.22,0,0,1,1,27.5Z"/><path class="cls-1" d="M9.23,63.38A1.06,1.06,0,0,1,8,62.25c0-.17,0-.33,0-.49V31a8.15,8.15,0,0,1,0-.88,1,1,0,0,1,1.06-.92,1.09,1.09,0,0,1,1.08,1c0,.17,0,.34,0,.51V61.16l1,.05.52,0h6.54c2.35,0,4.7,0,7.05,0h0a1.68,1.68,0,0,0,1.23-.41A1.63,1.63,0,0,0,27,59.6Q27,52,27,44.3a8.73,8.73,0,0,1,6.55-8.75,8.61,8.61,0,0,1,10.72,7.67c.12,2.06.1,4.18.08,6.23,0,.88,0,1.75,0,2.62,0,2.56,0,5.12,0,7.68a1.5,1.5,0,0,0,.35,1.13,1.34,1.34,0,0,0,1,.36l10.1,0H60a1.18,1.18,0,0,0,.35,0l.77-.16V30.58c0-.52.14-1.39,1.07-1.39h.1a1,1,0,0,1,1,.81,4.23,4.23,0,0,1,.06.78v31c0,1.36-.28,1.64-1.64,1.64H43.69c-1.26,0-1.55-.29-1.55-1.57V56.44q0-6.16,0-12.34a6.49,6.49,0,0,0-6.21-6.63h-.28A6.48,6.48,0,0,0,29.16,44v7.62c0,3.44,0,6.88,0,10.32a1.86,1.86,0,0,1-.35,1.09,1.3,1.3,0,0,1-.83.3c-3.54,0-7.08,0-10.61,0Z"/></svg>