<?xml version="1.0" encoding="utf-8"?>
<!-- Generator: Adobe Illustrator 26.0.3, SVG Export Plug-In . SVG Version: 6.00 Build 0)  -->
<svg version="1.1" id="Camada_1" xmlns="http://www.w3.org/2000/svg" xmlns:xlink="http://www.w3.org/1999/xlink" x="0px" y="0px"
	 viewBox="0 0 66.4 66.4" style="enable-background:new 0 0 66.4 66.4;" xml:space="preserve">
<style type="text/css">
	.st0{fill:#FF9F32;}
	.st1{enable-background:new    ;}
	.st2{fill:#FFFFFF;}
</style>
<g>
	<g id="Camada_1_00000140703210407761785850000013930152511137569460_">
		<circle class="st0" cx="33.2" cy="33.2" r="33.2"/>
		
			<image style="overflow:visible;opacity:0.15;enable-background:new    ;" width="52" height="68" xlink:href="B089F390.png"  transform="matrix(1 0 0 1 9.43 3.37)">
		</image>
		<g class="st1">
			<path class="st2" d="M20,51c-0.8,0-1.6-0.2-2.2-0.5c-0.7-0.3-1-0.9-1-1.5V17.8c0-1.2,0.3-2,1-2.5c0.7-0.5,1.4-0.7,2.2-0.7
				s1.5,0.1,2,0.2c0.6,0.2,1.1,0.5,1.6,1c0.5,0.5,1,1.2,1.5,2.2l6.1,11.2L37.4,18c0.6-1,1.1-1.7,1.6-2.2c0.5-0.5,1-0.8,1.5-1
				c0.6-0.2,1.2-0.2,2-0.2c0.8,0,1.6,0.2,2.3,0.7c0.7,0.5,1,1.3,1,2.5V49c0,0.7-0.3,1.2-1,1.5S43.4,51,42.6,51s-1.6-0.2-2.2-0.5
				s-1-0.9-1-1.5V27.5l-5.8,10.4c-0.3,0.5-0.7,0.8-1.1,1s-0.8,0.3-1.2,0.3c-0.4,0-0.7-0.1-1.1-0.3c-0.4-0.2-0.7-0.5-1-1l-5.8-10.8
				V49c0,0.7-0.3,1.2-1,1.5C21.6,50.8,20.8,51,20,51z"/>
		</g>
	</g>
</g>
</svg>
