<svg id="Camada_1" data-name="Camada 1" xmlns="http://www.w3.org/2000/svg" viewBox="0 0 35.7 25.26"><defs><style>.cls-1{fill:#ff9f32;}</style></defs><path class="cls-1" d="M4.37,24.88a3.79,3.79,0,0,1-4-4V4.33a3.8,3.8,0,0,1,4-3.95h27a3.8,3.8,0,0,1,4,4V20.89a3.82,3.82,0,0,1-4,4H4.37Zm27.27-2.12h.12l.37-.11L23.22,12.5l-4.44,3.91a1.36,1.36,0,0,1-.87.42,1.31,1.31,0,0,1-.86-.42l-4.42-3.89L3.7,22.68a2.57,2.57,0,0,0,.71.08H31.64ZM2.61,3.67a1.93,1.93,0,0,0-.07.57V20.8L11,11.11ZM33.28,20.74V4.26a2,2,0,0,0-.07-.58l-8.4,7.42ZM17.91,14.36,31.25,2.58c-2.07-.05-7.47-.09-13.92-.09-5.93,0-10.78,0-12.77.09Z"/></svg>