<svg id="Camada_1" data-name="Camada 1" xmlns="http://www.w3.org/2000/svg" viewBox="0 0 53.44 53.44"><defs><style>.cls-1{fill:#ff9f32;}</style></defs><path class="cls-1" d="M17.42,53.44q-3,0-6,0a11,11,0,0,1-10-5.74A10.42,10.42,0,0,1,0,42.31c0-3.49,0-7,0-10.47a1.76,1.76,0,0,1,1.23-1.78A2.24,2.24,0,0,1,1.75,30a1.49,1.49,0,0,1,1.35.73,2.75,2.75,0,0,1,.33,1.22c0,2.43,0,4.86,0,7.28V42a7.73,7.73,0,0,0,8,8H42a7.73,7.73,0,0,0,8-8V31.76a1.7,1.7,0,0,1,1.17-1.67,1.65,1.65,0,0,1,.58-.1,1.51,1.51,0,0,1,1.25.62,2.09,2.09,0,0,1,.41,1.05l0,2.27c0,3.09.06,6.28-.09,9.39a11,11,0,0,1-9.07,9.9,16.29,16.29,0,0,1-2.44.19l-7.55,0H26.72Z"/><path class="cls-1" d="M26.7,40.92A1.69,1.69,0,0,1,25,39.36c0-.2,0-.4,0-.61V6L23.09,7.79,20.86,10l-7.71,7.71a1.9,1.9,0,0,1-1.36.67,1.87,1.87,0,0,1-.4,0,1.71,1.71,0,0,1-1.25-1.11,1.68,1.68,0,0,1,.29-1.64,2.54,2.54,0,0,1,.28-.29L25.23.79A2.26,2.26,0,0,1,26.72,0,2.21,2.21,0,0,1,28.2.78l5,5,9.5,9.49a1.74,1.74,0,0,1,.62,1.75,1.7,1.7,0,0,1-1.66,1.35,1.73,1.73,0,0,1-1.19-.49c-.75-.71-1.48-1.45-2.22-2.19L36.47,13.9q-3.07-3.06-6.14-6.15a.9.9,0,0,1-.12-.19,2.39,2.39,0,0,1-.13-.21l-.43-.66-1.22.82V38.93c0,1.42-.73,1.78-1.29,1.93A1.54,1.54,0,0,1,26.7,40.92Z"/></svg>