<svg id="Camada_1" data-name="Camada 1" xmlns="http://www.w3.org/2000/svg" viewBox="0 0 48.4 48.41"><defs><style>.cls-1{fill:#ff9f32;}</style></defs><path class="cls-1" d="M22.91,47.41a2.76,2.76,0,0,0-.42-.08,22.19,22.19,0,0,1-10.11-3.18,23,23,0,0,1-11-16c-.11-.6-.18-1.21-.26-1.81,0-.28-.06-.55-.1-.82V22.88s.06-.32.08-.45c0-.34.09-.68.13-1,.09-.7.17-1.37.32-2A22.52,22.52,0,0,1,10.14,5.8,22.47,22.47,0,0,1,23.93,1a25.64,25.64,0,0,1,5.15.55A22.42,22.42,0,0,1,42.59,10.1a22.58,22.58,0,0,1,4.69,16.43,22.44,22.44,0,0,1-5.66,13A22.91,22.91,0,0,1,28.2,47.05c-.61.1-1.22.18-1.83.26l-.81.1ZM24.2,2.77A21.44,21.44,0,1,0,45.65,24.2,21.29,21.29,0,0,0,24.2,2.77Z"/><path class="cls-1" d="M24.23,34.29a.93.93,0,0,1-.91-1V24.91H14.85a.8.8,0,0,1-.78-.46.79.79,0,0,1,0-.88c.14-.22.35-.42,1-.42h8.25V18.87c0-1.38,0-2.76,0-4.14a.86.86,0,0,1,.75-.92h.14a.81.81,0,0,1,.76.51,1.83,1.83,0,0,1,.1.62c0,1.68,0,3.36,0,5v3.19H33.3c.68,0,.87.21,1,.41a.79.79,0,0,1,.05.87.81.81,0,0,1-.81.48H25.09v3.58c0,1.59,0,3.18,0,4.77A.93.93,0,0,1,24.23,34.29Z"/></svg>