<svg id="Camada_1" data-name="Camada 1" xmlns="http://www.w3.org/2000/svg" viewBox="0 0 262.24 140.39"><defs><style>.cls-1{fill:#ff9f32;}.cls-2{fill:#646464;}</style></defs><path class="cls-1" d="M105.18,140.25c-6,0-10.51,0-13.35-.13-.25,0-.51-.23-.77-.62a2.28,2.28,0,0,1-.4-1.29,1.55,1.55,0,0,1,.57-1.23,1.14,1.14,0,0,1,.25-.13,1.65,1.65,0,0,0,.31-.17.39.39,0,0,0,.15-.31,1.13,1.13,0,0,0-.26-.62,5.28,5.28,0,0,1-1.15-3.32,6.77,6.77,0,0,1,.19-1.56,6.11,6.11,0,0,1,3.83-4.5,7.47,7.47,0,0,1,2.78-.51,7.81,7.81,0,0,1,4.25,1.1,5.83,5.83,0,0,1,2.4,3,6.91,6.91,0,0,1,.31,2.2,10.09,10.09,0,0,1-.08,1.42,3.45,3.45,0,0,1-.58,1.18,3,3,0,0,0-.58,1.36c0,.17,0,.24,2.31.33q2.17.09,2.88.09a2.2,2.2,0,0,1,1.21.31,1.22,1.22,0,0,1,.47,1,3.66,3.66,0,0,1,0,.54,3.53,3.53,0,0,1-.12,1,.84.84,0,0,1-.34.51,1.4,1.4,0,0,1-.49.22,4.3,4.3,0,0,1-.72,0h-3.1Zm-7.92-11a3.68,3.68,0,0,0-2.57,1,3.37,3.37,0,0,0-1.18,2.33V133a3.46,3.46,0,0,0,1.11,2.72,4,4,0,0,0,2.68,1h.11a4.38,4.38,0,0,0,3-1,3.48,3.48,0,0,0,1-2.71v-.24a2.87,2.87,0,0,0-1.2-2.51,5.26,5.26,0,0,0-2.74-.9Z"/><path class="cls-1" d="M97.48,123.85c-1,0-2.64,0-4.78,0a2.12,2.12,0,0,1-1.47-.65,1.9,1.9,0,0,1-.64-1.38,1.56,1.56,0,0,1,.78-1.38.51.51,0,0,1,.22-.11,2.78,2.78,0,0,1,.38-.08l.32-.07.29-.08-.25-.17a3.57,3.57,0,0,1-1.8-3,2.93,2.93,0,0,1,0-.43.59.59,0,0,1,.4-.58,2,2,0,0,1,.7-.2h.45a2.55,2.55,0,0,1,1.07.16,1.73,1.73,0,0,1,.56.89,6.66,6.66,0,0,1,.28.81c.1.35.19.64.27.85a4,4,0,0,0,.35.68,1.59,1.59,0,0,0,.69.59,3.19,3.19,0,0,0,1.08.24l3.12.16c1.57.08,2.78.14,3.62.2a.87.87,0,0,1,.82.48,4.64,4.64,0,0,1,.19,1.2,2.72,2.72,0,0,1-.17,1,1.11,1.11,0,0,1-.6.57,2.51,2.51,0,0,1-1,.29C100.78,123.83,99.13,123.85,97.48,123.85Z"/><path class="cls-1" d="M97.67,114.32l-.19,0a6.68,6.68,0,0,1-4.93-2.06,7,7,0,0,1-2-5.08v-.39A7.28,7.28,0,0,1,92.59,102,6.45,6.45,0,0,1,97.5,100h.25a6.79,6.79,0,0,1,4.68,2.11,7,7,0,0,1,2,5.16,1.72,1.72,0,0,1,0,.2c0,.09,0,.17,0,.23a7.17,7.17,0,0,1-2,4.64A6.19,6.19,0,0,1,97.67,114.32Zm-.19-11a3.88,3.88,0,0,0-2.72,1,3.74,3.74,0,0,0-1.25,2.55s0,.25,0,.28a3.36,3.36,0,0,0,1.25,2.64A4.21,4.21,0,0,0,97.36,111h.18a4,4,0,0,0,2.7-1.07,3.23,3.23,0,0,0,1.2-2.43,1.28,1.28,0,0,0,0-.31,3.56,3.56,0,0,0-1.19-2.78A4,4,0,0,0,97.48,103.34Z"/><path class="cls-2" d="M3.16,139.23A3.2,3.2,0,0,1,1,138.67a2.54,2.54,0,0,1-.62-2c0-.82,0-2.06,0-3.71s0-2.88,0-3.71v-9.71c0-.94,0-2.39,0-4.35s0-3.4,0-4.35,0-2.34.05-4.2,0-3.27,0-4.22v-.6A3.48,3.48,0,0,1,.6,101,2.18,2.18,0,0,1,1,100.3a2.29,2.29,0,0,1,1.11-.6,7.4,7.4,0,0,1,2.17-.26c2.25.11,2.92.54,3.12.78S8,101.38,8,103.6v8.29c0,8.77,0,15.09,0,19.33a1.63,1.63,0,0,0,.6,1.09,1.71,1.71,0,0,0,1.14.6l12.18.05a4,4,0,0,1,2.78.73,3.59,3.59,0,0,1,.75,2.61,2.86,2.86,0,0,1-.75,2.25,4.24,4.24,0,0,1-2.73.68l-10.62,0-4.13,0Z"/><path class="cls-2" d="M44.24,139.78a18.17,18.17,0,0,1-3-.32,12.61,12.61,0,0,1-9.5-7.55A16.27,16.27,0,0,1,30.05,125a13.08,13.08,0,0,1,3.24-8.69A19.7,19.7,0,0,1,42,110.59a8.55,8.55,0,0,1,2.61-.44c2.13,0,4.56,1,7.23,2.9a7,7,0,0,1,.52.48l1.18,1.19.05-.93a3.1,3.1,0,0,1,1-2.36,3.47,3.47,0,0,1,2.3-.82,3.79,3.79,0,0,1,2.61,1,3.43,3.43,0,0,1,1.1,2.72V125c0,.56.07,1.68.21,3.4s.2,3,.2,3.92c0,3.57-.91,5.82-2.7,6.68a3.11,3.11,0,0,1-1.28.24,5.16,5.16,0,0,1-1.65-.25,2.34,2.34,0,0,1-1.24-1,3.4,3.4,0,0,1-.59-1.61l-.07-.72L52,136.79A11,11,0,0,1,44.24,139.78Zm1.47-23.22a7.89,7.89,0,0,0-5.65,2.27,8.36,8.36,0,0,0-2.37,6.29,8.81,8.81,0,0,0,2.06,6.17,7.29,7.29,0,0,0,5.64,2.26,7.61,7.61,0,0,0,6.1-2.53,9.25,9.25,0,0,0,2.14-6.22,7.74,7.74,0,0,0-7.92-8.24Z"/><path class="cls-2" d="M70.12,139a5.76,5.76,0,0,1-2.09-.34,2.32,2.32,0,0,1-1.16-1.24,5,5,0,0,1-.59-2.05c-.09-3.48-.14-7-.14-10.56,0-2.22,0-5.56.09-10.21a4.38,4.38,0,0,1,1.35-3.08,3.9,3.9,0,0,1,2.86-1.32,3.26,3.26,0,0,1,2.86,1.6,1.11,1.11,0,0,1,.22.45c.06.22.12.49.18.8s.11.56.14.69l.23.89.52-.76c1.73-2.56,3.81-3.81,6.34-3.81a7,7,0,0,1,.9.09h.11a1.08,1.08,0,0,1,1,.78,3.86,3.86,0,0,1,.42,1.46v1a4.67,4.67,0,0,1-.34,2.22c-.14.26-.57.66-1.82,1.15a15,15,0,0,1-1.73.58c-.76.22-1.37.42-1.82.59a7.32,7.32,0,0,0-1.49.77,3.42,3.42,0,0,0-1.3,1.53,6.8,6.8,0,0,0-.52,2.34c-.06,1.1-.18,3.33-.34,6.69s-.32,5.94-.44,7.73a1.77,1.77,0,0,1-.94,1.66A9.78,9.78,0,0,1,70.12,139Z"/><path class="cls-2" d="M126.76,139.33l-4.07,0-4.08,0h-.69c-1.81,0-2.65-.87-2.65-2.75V102.79c0-2,1-2.92,3-3,4.75-.18,7.45-.27,8-.27a40.87,40.87,0,0,1,5.08.29,26.06,26.06,0,0,1,4.57,1,11.72,11.72,0,0,1,4,2.21,10.08,10.08,0,0,1,2.7,3.67,8.83,8.83,0,0,1,.79,3.59,9.74,9.74,0,0,1-1,4.29,7.9,7.9,0,0,1-2.76,3.2,4.74,4.74,0,0,0-.84.65.56.56,0,0,0-.18.41.67.67,0,0,0,.22.49,1.91,1.91,0,0,0,.64.41l.34.17a8.57,8.57,0,0,1,3.88,3.46,9.74,9.74,0,0,1,1.34,5,10.51,10.51,0,0,1-1.41,5.29,8.94,8.94,0,0,1-3.9,3.68,15.57,15.57,0,0,1-4,1.34,26.6,26.6,0,0,1-4,.52C130.64,139.3,128.94,139.33,126.76,139.33Zm2.06-17.18c-1,0-2.24,0-3.55.14a2.22,2.22,0,0,0-2,.92,4.36,4.36,0,0,0-.44,2.2c0,.18,0,.49,0,.93s0,.75,0,1c0,3.55.39,4.44.72,4.83s1.17.85,4.5.85h.69c5.07,0,7.81-1.36,8.15-4a15.12,15.12,0,0,0-.24-3.07,4.35,4.35,0,0,0-1.13-2.09,4.81,4.81,0,0,0-2.55-1.31A19.77,19.77,0,0,0,128.82,122.15ZM128.41,105a9.69,9.69,0,0,0-3.73.68c-1.2.49-1.81,1.14-1.81,1.93v1.33c0,3,0,5.12.09,6.52,0,1.16,1.56,1.68,4.94,1.68a27.79,27.79,0,0,0,4.84-.33,3.27,3.27,0,0,0,2.31-2,7.26,7.26,0,0,0,.87-3.41,4,4,0,0,0-.29-1.59,5.07,5.07,0,0,0-2.55-3.67A9.35,9.35,0,0,0,128.41,105Z"/><path class="cls-2" d="M154,139.14c-2,0-3-.93-3-2.93,0-.51,0-1.28,0-2.28s0-1.77,0-2.3c0-.73,0-1.82,0-3.27s0-2.54,0-3.27V114.42a3.87,3.87,0,0,1,1.05-2.79,3.34,3.34,0,0,1,2.52-1.1,4,4,0,0,1,3.85,3.59c.06,2.42.09,6.13.09,11V136a2.89,2.89,0,0,1-.84,2.48c-.41.29-1.38.65-3.65.68Zm.69-32a4.75,4.75,0,0,1-3.4-1.24,4.48,4.48,0,0,1,3-7.46h.28a5.9,5.9,0,0,1,3.32,1.24,3.69,3.69,0,0,1,1.35,3.11,4.08,4.08,0,0,1-1.25,3.15A4.55,4.55,0,0,1,154.7,107.14Z"/><path class="cls-2" d="M178.25,139.92a6.88,6.88,0,0,1-1,0,17,17,0,0,1-9.6-4.81,13.37,13.37,0,0,1-4-9.89,15.57,15.57,0,0,1,1.16-5.89,13.07,13.07,0,0,1,3.33-4.84,14.78,14.78,0,0,1,10.48-4,24.2,24.2,0,0,1,9.72,2.21,1.58,1.58,0,0,1,1,1.55,4.35,4.35,0,0,1-.8,2.34q-.9,1.5-2,1.5a4.31,4.31,0,0,1-1.74-.57,7.38,7.38,0,0,0-2-.75,14.79,14.79,0,0,0-2.49-.23,11.1,11.1,0,0,0-5.47,1.33,7.69,7.69,0,0,0-3.48,4.2,8.75,8.75,0,0,0,.82,7.67,8,8,0,0,0,3.71,3.16,6,6,0,0,0,2.5.54,19.46,19.46,0,0,0,3.79-.56,18.55,18.55,0,0,1,3.44-.54,3.43,3.43,0,0,1,3.38,2.05,2.5,2.5,0,0,1,.28,1.15,2.44,2.44,0,0,1-1.14,1.92,8.87,8.87,0,0,1-3.09,1.46,31.09,31.09,0,0,1-3.73.79A22.29,22.29,0,0,1,178.25,139.92Z"/><path class="cls-2" d="M217.36,139.23a1.78,1.78,0,0,1-.83-.11l-.09-.06h-.12a1.92,1.92,0,0,1-1.56-.78,2.73,2.73,0,0,1-.65-1.57C214,135.21,214,133,214,130c0-.83,0-2.06,0-3.71s0-2.87,0-3.67a5.85,5.85,0,0,0-5.91-6.13,5.24,5.24,0,0,0-5.36,5c-.24,2.4-.5,7.45-.78,15-.08,1.79-.83,2.63-2.38,2.63h-.41c-.19,0-.5,0-.93,0s-.72,0-.9,0a2.47,2.47,0,0,1-2.63-1.78,4.9,4.9,0,0,1-.21-1.56c0-1,0-2.58,0-4.63s0-3.57,0-4.57c0-.83,0-2.09,0-3.8s0-3,0-3.8c0-1.07,0-2.69,0-4.86s0-3.8,0-4.9c0-.82,0-2,0-3.68s0-2.86,0-3.69a2.67,2.67,0,0,1,.71-2.11c.33-.29,1.1-.64,2.91-.64.15,0,.41,0,.77,0l.74,0a2.17,2.17,0,0,1,1.55.62,2.07,2.07,0,0,1,.69,1.5c.06,1,.09,2.8.09,5.43s0,4.57.05,5.74a.84.84,0,0,0,.56.81,1,1,0,0,0,.34.06.86.86,0,0,0,.63-.27,11,11,0,0,1,12-1.73,8.68,8.68,0,0,1,3.43,3,13.33,13.33,0,0,1,2.16,5.44,56.17,56.17,0,0,1,.47,8.16c0,.94,0,2.39,0,4.34s0,3.43,0,4.4a2.16,2.16,0,0,1-1,2.09A6.48,6.48,0,0,1,217.36,139.23Z"/><path class="cls-2" d="M251.5,139.07h-.42a10.48,10.48,0,0,1-2.71-.59,13.28,13.28,0,0,0-9.42,0,8.73,8.73,0,0,1-3.18.62,8,8,0,0,1-5.83-2.53,10.82,10.82,0,0,1-2.95-7.82v-.09a22.84,22.84,0,0,1,2.06-7.54c1.93-4.27,4.52-7.22,7.94-9a14.31,14.31,0,0,1,6.67-1.76,14,14,0,0,1,9.18,3.68c3.43,2.89,5.67,6.91,6.88,12.29a11.51,11.51,0,0,1-.43,7.21A8.81,8.81,0,0,1,251.5,139.07Zm-8.09-6.52A20.5,20.5,0,0,1,250,133.7a5.84,5.84,0,0,0,1.38.33h.13a3.79,3.79,0,0,0,3.15-2.52,6.53,6.53,0,0,0,.15-4.14c-1-4.26-2.66-7.39-5.21-9.54a9.21,9.21,0,0,0-5.93-2.49,9.38,9.38,0,0,0-4.32,1.18,13.13,13.13,0,0,0-5.69,6.63,17.82,17.82,0,0,0-1.62,5.72,5.76,5.76,0,0,0,1.51,4.14,3.05,3.05,0,0,0,3.56.74A17,17,0,0,1,243.41,132.55Z"/><path class="cls-1" d="M246.16,102.77a5.21,5.21,0,0,1,1.16-3.42,3.17,3.17,0,0,1,5,0,5.16,5.16,0,0,1,1.16,3.52,5.05,5.05,0,0,1-1.21,3.34,3.15,3.15,0,0,1-5,0A5.13,5.13,0,0,1,246.16,102.77Z"/><path class="cls-1" d="M240.92,102.68a5.19,5.19,0,0,1-1.07,3.35,3.18,3.18,0,0,1-5.22,0,5.25,5.25,0,0,1-1-3.89,4.91,4.91,0,0,1,1.16-2.82,3.17,3.17,0,0,1,5,0A5.08,5.08,0,0,1,240.92,102.68Z"/><path class="cls-1" d="M230.41,111.1a10.73,10.73,0,0,1-.32,1.3,2.32,2.32,0,0,1-3.76,1,4,4,0,0,1-1.23-4.31,2.37,2.37,0,0,1,2.29-1.67,2.72,2.72,0,0,1,2,1,4.11,4.11,0,0,1,1,2.68Z"/><path class="cls-1" d="M262.24,110.17a4.12,4.12,0,0,1-1.3,3.07,2.34,2.34,0,0,1-4-1.17,3.77,3.77,0,0,1,1.17-4,2.35,2.35,0,0,1,4,1.28C262.18,109.67,262.21,110,262.24,110.17Z"/><path class="cls-2" d="M117.52,92.59a11.87,11.87,0,0,1-10.44-6.75,19.82,19.82,0,0,1-2.45-8.06c-.55-11.87-.6-25.82,3.22-39.22.57-2,1.34-4,2.08-5.85.45-1.13.9-2.27,1.3-3.42a2.7,2.7,0,0,0,.15-2.16l-13.6-22-.21.49c-.7,1.67-1.47,3.48-2.24,5.28l-2.19,5.16c-.64,1.54-1.08,2-1.79,2a4.44,4.44,0,0,1-1.67-.47,16.36,16.36,0,0,0-6.35-1.3,20.5,20.5,0,0,0-8,1.77,6.32,6.32,0,0,1-2.1.63c-.72,0-1.15-.52-2.08-2.1C70.1,14.84,69,13,67.86,11.09L65.94,7.86l-.2.53C61.2,20.18,59.27,32.14,58,42.29l0,.31h6.71a2.85,2.85,0,0,1,2.11.58,1.62,1.62,0,0,1,.36,1.25c-.07,1.31-.89,1.58-2.19,1.58h-.48c-.87,0-1.75,0-2.63,0H57.55l-.92,10.24,2.52-1.14,4.06-1.82a3.73,3.73,0,0,1,1.5-.41,1.41,1.41,0,0,1,1.36,1c.5,1.11.08,1.85-1.45,2.54l-.52.23c-2.1.94-4.27,1.92-6.34,3a3,3,0,0,0-1.37,2.1c-.34,5.49-.56,11-.77,16.22l0,.43c0,1.47-.13,2.37-1.57,2.37-1.68,0-1.78-1.07-1.77-2.76v-.23c0-3.43,0-6.85,0-10.34V62.76l-.45.34c-.37.29-.76.58-1.15.87-1,.73-2,1.48-2.94,2.29a3.08,3.08,0,0,1-1.73.89,1.47,1.47,0,0,1-1.14-.66,1.68,1.68,0,0,1-.46-1.24,2.57,2.57,0,0,1,1.15-1.6c1-.78,2.1-1.55,3.15-2.31s2-1.44,2.95-2.17l.16-.12c.58-.43,1.23-.91,1.3-1.5.29-2.66.5-5.34.71-8.18L54.08,46l-2.82.89c-1.78.55-3.45,1.07-5.1,1.63l-.54.2a5.08,5.08,0,0,1-1.59.42c-.39,0-.9-.13-1.28-1.07a1.69,1.69,0,0,1-.08-1.36c.32-.67,1.25-1,2.19-1.34a66.68,66.68,0,0,1,7.86-2.2A2.16,2.16,0,0,0,54.77,41c1.41-10.65,3.29-22,7.52-32.91A37.92,37.92,0,0,1,64,4.25c.57-1.1,1.21-1.69,1.84-1.69s1.24.53,1.85,1.53C69.15,6.54,70.6,9,72,11.45l1.91,3.25.2,0c.82-.18,1.64-.38,2.45-.59a29.81,29.81,0,0,1,5.36-1l.89,0a35.92,35.92,0,0,1,4.6.4c.88.11,1.8.23,2.74.32l.2,0,4.26-10a7.07,7.07,0,0,0,.27-.69l.27-.68c.41-1,1.09-2.1,2-2.1.63,0,1.33.54,2,1.57,3.3,4.92,6.59,10,9.78,14.85l3.29,5c.32.49.62,1,.85,1.38l.39.66.25-.24c1.11-1.09,2.19-2.2,3.26-3.31a81.78,81.78,0,0,1,7.4-7,40.82,40.82,0,0,1,20.68-8.95,24.33,24.33,0,0,1,3-.2c7,0,11.73,3.51,14.56,10.72a44.58,44.58,0,0,1,2.1,7.43c.45,2.18,1.45,3.43,3.17,3.92l3.47,1c5,1.43,10.07,2.92,15.18,4.1a54.09,54.09,0,0,0,12.21,1.37,65.14,65.14,0,0,0,12-1.16,10.65,10.65,0,0,1,1.89-.15q.6,0,1.2,0a3.39,3.39,0,0,1,3.49,2.87C219,42,218.6,49,216.12,55.38a13.68,13.68,0,0,1-9.5,8.77c-1.7.46-3.41.88-5.15,1.32l-2.72.68.32,1c.17.51.32,1,.46,1.49a7.94,7.94,0,0,1-1.25,7,7.59,7.59,0,0,1-6.09,3,8.78,8.78,0,0,1-1.89-.22,7.16,7.16,0,0,1-3-2.12A16.62,16.62,0,0,1,185.43,74c-.27-.39-.54-.78-.82-1.16a17.08,17.08,0,0,0-12.68-7.12,48.81,48.81,0,0,1-26.3-10.44l-.39-.32a8.09,8.09,0,0,1-2.08-2.09,1.73,1.73,0,0,1,.13-2.36,1.7,1.7,0,0,1,1.1-.47,1.42,1.42,0,0,1,1,.39c11.32,10.65,25,12.92,42.16,13.07h.19c1.37,0,2.75-.13,4.09-.25s2.48-.22,3.72-.24a4.62,4.62,0,0,0,3.9-2.1c3.42-4.48,4.94-9.75,6-14.32l.05-.24-.23-.08c-4.51-1.72-6.59-5-6.18-9.78l0-.27-.26,0-3.12-.34c-2.26-.24-4.4-.47-6.56-.8-6.91-1-14.27-2.44-21.31-5.42-3-1.26-6.09-3.16-6.49-7.63a20.43,20.43,0,0,0-1.46-5.25l-.1-.27c-2.21-5.92-6.35-9.06-12-9.06a16.75,16.75,0,0,0-3.5.39,42.1,42.1,0,0,0-27.54,18.57,2.85,2.85,0,0,0-.1,3.31c5.45,10.53,10.57,20.92,13.29,32.37,1.6,6.72,2,11.9,1.15,16.81a17.54,17.54,0,0,1-4.22,9.31A12.7,12.7,0,0,1,117.52,92.59Zm-3.9-60.44c-.27.73-.52,1.38-.75,2-.46,1.2-.86,2.24-1.19,3.3-4.16,13.35-4.23,27.18-3.69,40.12a16.27,16.27,0,0,0,2.19,6.86,8.49,8.49,0,0,0,7.41,4.77h0a9,9,0,0,0,6.84-3.42,15.38,15.38,0,0,0,2.38-4c1.28-3.18,1.63-6.78,1.09-11.33-1.55-13.35-7.31-25.1-13.41-37.54l-.65-1.32Zm80.23,34.43c-2,0-4.12.13-6.31.25l-3,.15L184,67l1.36,1.5c.63.69,1.16,1.27,1.67,1.88.74.88,1.58,1.9,2.32,3,.09.13.18.26.26.4.49.74,1,1.59,2,1.59a2,2,0,0,0,.79-.18,8.46,8.46,0,0,0,3.69-2.6c.82-1.23.46-3.14-.21-4.4-.54-1-1.26-1.58-2-1.58ZM211.76,46.9a18.54,18.54,0,0,0-2,.09,2.1,2.1,0,0,0-1.39,1.33c-1.11,3.2-2.19,6.46-3.23,9.61l-1.07,3.23.42,0c5.66-.5,9.56-6,9.94-13.91l0-.29H213Z"/><path class="cls-2" d="M139.17,33.49c-1.47,0-2.72-2.63-2.72-5.75S137.7,22,139.17,22s2.73,2.64,2.73,5.75S140.65,33.49,139.17,33.49Z"/><path class="cls-2" d="M74.52,38.68c-1,0-1.92-1.39-2.09-3.1s.51-3.37,1.52-3.47h.11c1,0,1.91,1.39,2.09,3.1s-.52,3.37-1.53,3.47Z"/><path class="cls-2" d="M95.93,35.46c-1,0-1.91-1.39-2.09-3.1a4.76,4.76,0,0,1,.34-2.43,1.63,1.63,0,0,1,1.18-1h.11c1,0,1.91,1.39,2.09,3.1S97,35.35,96,35.45Z"/><path class="cls-2" d="M153.34,33.49c-1.48,0-2.73-2.63-2.73-5.75S151.86,22,153.34,22s2.72,2.64,2.72,5.75S154.81,33.49,153.34,33.49Z"/><circle class="cls-2" cx="169.2" cy="45.06" r="1.26"/><circle class="cls-2" cx="178.57" cy="45.06" r="1.26"/><path class="cls-2" d="M188.42,46.32a1.26,1.26,0,1,1,1.26-1.26A1.27,1.27,0,0,1,188.42,46.32Z"/><path class="cls-2" d="M174.31,54.1a1.26,1.26,0,1,1,1.26-1.25A1.26,1.26,0,0,1,174.31,54.1Z"/><circle class="cls-2" cx="182.9" cy="52.85" r="1.26"/><path class="cls-2" d="M98.21,43.78a1.09,1.09,0,0,0-.59-.6,1.07,1.07,0,0,0-.84,0,1.14,1.14,0,0,0-.61.59,1.11,1.11,0,0,0,0,.84s1.35,3.51.26,5.68a2.94,2.94,0,0,1-2,1.54C90.1,53,87.06,46.07,87,46a1.1,1.1,0,0,0-2.1.58c0,.06.76,6.07-3.07,6.93a1.93,1.93,0,0,1-1.65-.32c-2.34-1.65-3-7.39-3-7.45a1.12,1.12,0,0,0-1.22-1A1.1,1.1,0,0,0,75,46c0,.28.81,6.77,4,9a4.13,4.13,0,0,0,2.41.79,4.27,4.27,0,0,0,1-.12c3.11-.7,4.24-3.36,4.65-5.41,1.45,2,3.6,3.91,6.38,3.91h0A6.15,6.15,0,0,0,95,53.94a5.13,5.13,0,0,0,3.39-2.68C99.92,48.2,98.28,44,98.21,43.78Z"/></svg>